<svg xmlns="http://www.w3.org/2000/svg" width="1200" height="1500" viewBox="0 0 1200 1500" font-family="Helvetica, Arial, sans-serif">
  <defs>
    <linearGradient id="hdr" x1="0" y1="0" x2="1" y2="1">
      <stop offset="0" stop-color="#0e7c86"/>
      <stop offset="1" stop-color="#0a5b63"/>
    </linearGradient>
    <linearGradient id="tech" x1="0" y1="0" x2="1" y2="0">
      <stop offset="0" stop-color="#0e7c86"/>
      <stop offset="1" stop-color="#1397a3"/>
    </linearGradient>
  </defs>

  <!-- page -->
  <rect width="1200" height="1500" fill="#f4f6fa"/>

  <!-- header -->
  <rect width="1200" height="218" fill="url(#hdr)"/>
  <text x="600" y="92" text-anchor="middle" fill="#ffffff" font-size="66" font-weight="800" letter-spacing="1">AI-POWERED AGILE</text>
  <text x="600" y="146" text-anchor="middle" fill="#cdeef0" font-size="30" font-weight="600">How I used AI at every step to build CareBridge</text>
  <text x="600" y="186" text-anchor="middle" fill="#9ad8dd" font-size="23">A 3-tier app &#183; React &#183; FastAPI &#183; PostgreSQL</text>

  <!-- ================= STEP TEMPLATE ================= -->
  <!-- step 1 -->
  <g>
    <rect x="80" y="250" width="1040" height="150" rx="16" fill="#ffffff" stroke="#e3e8ef" stroke-width="2"/>
    <rect x="80" y="250" width="10" height="150" rx="5" fill="#0e7c86"/>
    <circle cx="172" cy="325" r="44" fill="#0e7c86"/>
    <text x="172" y="341" text-anchor="middle" fill="#ffffff" font-size="46" font-weight="800">1</text>
    <text x="252" y="312" fill="#1c2733" font-size="40" font-weight="800">REQUIREMENTS</text>
    <text x="252" y="360" font-size="27" fill="#5a6b7b"><tspan fill="#d9730d" font-weight="800">AI &#8594;</tspan> flags ambiguity, gaps &amp; risks in the brief</text>
    <rect x="980" y="288" width="116" height="40" rx="20" fill="#eef6f7"/>
    <text x="1038" y="315" text-anchor="middle" fill="#0a5b63" font-size="23" font-weight="700">Ch 1.3</text>
  </g>
  <path d="M588 408 l12 14 l12 -14" fill="none" stroke="#0e7c86" stroke-width="6" stroke-linecap="round" stroke-linejoin="round"/>

  <!-- step 2 -->
  <g>
    <rect x="80" y="430" width="1040" height="150" rx="16" fill="#ffffff" stroke="#e3e8ef" stroke-width="2"/>
    <rect x="80" y="430" width="10" height="150" rx="5" fill="#0e7c86"/>
    <circle cx="172" cy="505" r="44" fill="#0e7c86"/>
    <text x="172" y="521" text-anchor="middle" fill="#ffffff" font-size="46" font-weight="800">2</text>
    <text x="252" y="492" fill="#1c2733" font-size="40" font-weight="800">BACKLOG</text>
    <text x="252" y="540" font-size="27" fill="#5a6b7b"><tspan fill="#d9730d" font-weight="800">AI &#8594;</tspan> prioritizes stories + documents the rationale</text>
    <rect x="980" y="468" width="116" height="40" rx="20" fill="#eef6f7"/>
    <text x="1038" y="495" text-anchor="middle" fill="#0a5b63" font-size="23" font-weight="700">Ch 1.1</text>
  </g>
  <path d="M588 588 l12 14 l12 -14" fill="none" stroke="#0e7c86" stroke-width="6" stroke-linecap="round" stroke-linejoin="round"/>

  <!-- step 3 -->
  <g>
    <rect x="80" y="610" width="1040" height="150" rx="16" fill="#ffffff" stroke="#e3e8ef" stroke-width="2"/>
    <rect x="80" y="610" width="10" height="150" rx="5" fill="#0e7c86"/>
    <circle cx="172" cy="685" r="44" fill="#0e7c86"/>
    <text x="172" y="701" text-anchor="middle" fill="#ffffff" font-size="46" font-weight="800">3</text>
    <text x="252" y="672" fill="#1c2733" font-size="40" font-weight="800">TEAM</text>
    <text x="252" y="720" font-size="27" fill="#5a6b7b"><tspan fill="#d9730d" font-weight="800">AI &#8594;</tspan> drafts roles, skills matrix &amp; job specs</text>
    <rect x="980" y="648" width="116" height="40" rx="20" fill="#eef6f7"/>
    <text x="1038" y="675" text-anchor="middle" fill="#0a5b63" font-size="23" font-weight="700">Ch 2.1</text>
  </g>
  <path d="M588 768 l12 14 l12 -14" fill="none" stroke="#0e7c86" stroke-width="6" stroke-linecap="round" stroke-linejoin="round"/>

  <!-- step 4 -->
  <g>
    <rect x="80" y="790" width="1040" height="150" rx="16" fill="#ffffff" stroke="#e3e8ef" stroke-width="2"/>
    <rect x="80" y="790" width="10" height="150" rx="5" fill="#0e7c86"/>
    <circle cx="172" cy="865" r="44" fill="#0e7c86"/>
    <text x="172" y="881" text-anchor="middle" fill="#ffffff" font-size="46" font-weight="800">4</text>
    <text x="252" y="852" fill="#1c2733" font-size="40" font-weight="800">BUILD &#183; SPRINT</text>
    <text x="252" y="900" font-size="27" fill="#5a6b7b"><tspan fill="#d9730d" font-weight="800">AI &#8594;</tspan> scaffolds the 3-tier app, API &amp; tests</text>
    <rect x="980" y="828" width="116" height="40" rx="20" fill="#eef6f7"/>
    <text x="1038" y="855" text-anchor="middle" fill="#0a5b63" font-size="23" font-weight="700">Build</text>
  </g>
  <path d="M588 948 l12 14 l12 -14" fill="none" stroke="#0e7c86" stroke-width="6" stroke-linecap="round" stroke-linejoin="round"/>

  <!-- step 5 -->
  <g>
    <rect x="80" y="970" width="1040" height="150" rx="16" fill="#ffffff" stroke="#e3e8ef" stroke-width="2"/>
    <rect x="80" y="970" width="10" height="150" rx="5" fill="#0e7c86"/>
    <circle cx="172" cy="1045" r="44" fill="#0e7c86"/>
    <text x="172" y="1061" text-anchor="middle" fill="#ffffff" font-size="46" font-weight="800">5</text>
    <text x="252" y="1032" fill="#1c2733" font-size="40" font-weight="800">CULTURE &amp; COMPLIANCE</text>
    <text x="252" y="1080" font-size="27" fill="#5a6b7b"><tspan fill="#d9730d" font-weight="800">AI &#8594;</tspan> maps SCARF / 5Es + HIPAA / GDPR risk</text>
    <rect x="980" y="1008" width="116" height="40" rx="20" fill="#eef6f7"/>
    <text x="1038" y="1035" text-anchor="middle" fill="#0a5b63" font-size="23" font-weight="700">Ch 2-3</text>
  </g>
  <path d="M588 1128 l12 14 l12 -14" fill="none" stroke="#0e7c86" stroke-width="6" stroke-linecap="round" stroke-linejoin="round"/>

  <!-- step 6 -->
  <g>
    <rect x="80" y="1150" width="1040" height="150" rx="16" fill="#ffffff" stroke="#e3e8ef" stroke-width="2"/>
    <rect x="80" y="1150" width="10" height="150" rx="5" fill="#0e7c86"/>
    <circle cx="172" cy="1225" r="44" fill="#0e7c86"/>
    <text x="172" y="1241" text-anchor="middle" fill="#ffffff" font-size="46" font-weight="800">6</text>
    <text x="252" y="1212" fill="#1c2733" font-size="40" font-weight="800">RETROSPECTIVE</text>
    <text x="252" y="1260" font-size="27" fill="#5a6b7b"><tspan fill="#d9730d" font-weight="800">AI &#8594;</tspan> summarizes feedback, sentiment &amp; actions</text>
    <rect x="980" y="1188" width="116" height="40" rx="20" fill="#eef6f7"/>
    <text x="1038" y="1215" text-anchor="middle" fill="#0a5b63" font-size="23" font-weight="700">Ch 1.4</text>
  </g>

  <!-- core technique strip -->
  <rect x="80" y="1330" width="1040" height="92" rx="16" fill="url(#tech)"/>
  <text x="600" y="1369" text-anchor="middle" fill="#bdebee" font-size="22" font-weight="700" letter-spacing="2">THE ONE TECHNIQUE BEHIND IT ALL</text>
  <text x="600" y="1404" text-anchor="middle" fill="#ffffff" font-size="33" font-weight="800">Act as a ROLE  &#8594;  Create a TASK  &#8594;  Show as a FORMAT</text>

  <!-- footer -->
  <text x="600" y="1466" text-anchor="middle" fill="#66788a" font-size="24" font-weight="600">github.com/nayakwadi/carebridge-ai-agile</text>
</svg>
